<?xml version="1.0" standalone="no"?>
<!DOCTYPE svg PUBLIC "-//W3C//DTD SVG 20010904//EN"
 "http://www.w3.org/TR/2001/REC-SVG-20010904/DTD/svg10.dtd">
<svg version="1.0" xmlns="http://www.w3.org/2000/svg"
 width="700.000000pt" height="700.000000pt" viewBox="0 0 700.000000 700.000000"
 preserveAspectRatio="xMidYMid meet">
<metadata>
Created by potrace 1.11, written by Peter Selinger 2001-2013
</metadata>
<g transform="translate(0.000000,700.000000) scale(0.100000,-0.100000)"
fill="#000000" stroke="none">
<path d="M3378 6125 c-2 -1 -45 -5 -96 -8 -194 -13 -460 -71 -667 -145 -1045
-373 -1746 -1371 -1739 -2477 1 -115 8 -241 19 -315 2 -14 7 -45 10 -70 41
-300 157 -634 316 -910 76 -133 88 -151 186 -281 158 -211 281 -331 563 -552
17 -14 96 -66 184 -121 63 -40 324 -169 366 -181 14 -4 39 -13 55 -21 50 -22
174 -61 280 -88 532 -133 1078 -100 1595 97 123 48 325 148 429 212 392 247
730 606 931 990 23 44 45 85 49 90 4 6 15 28 24 50 9 22 30 74 47 115 43 103
67 172 91 260 11 41 22 82 25 90 12 40 53 259 58 309 54 514 -7 945 -197 1380
-286 658 -846 1182 -1519 1422 -108 39 -301 93 -368 104 -19 3 -42 8 -50 10
-8 2 -35 7 -60 10 -25 3 -61 8 -80 10 -87 12 -155 17 -297 19 -84 2 -154 2
-155 1z"/>
</g>
</svg>
